<svg width="203" height="84" viewBox="0 0 203 84" fill="none" xmlns="http://www.w3.org/2000/svg">
<g filter="url(#filter0_d)">
<path fill-rule="evenodd" clip-rule="evenodd" d="M22 22C22 16.4772 26.4772 12 32 12H171C176.523 12 181 16.4772 181 22V42C181 47.5228 176.523 52 171 52H32C26.4772 52 22 47.5228 22 42V22Z" fill="white"/>
</g>
<path d="M38.4473 31.9277L40.1582 27.4688H41.8047L38.834 34.5469L38.5645 35.0801C38.1738 35.7754 37.541 36.123 36.666 36.123L36.0566 36.0879L36.0684 34.916C36.1621 34.9316 36.3281 34.9395 36.5664 34.9395C36.9883 34.9395 37.2852 34.7598 37.457 34.4004L37.7617 33.6797L34.8438 27.4688H36.4609L38.4473 31.9277ZM45.7832 30.0117C46.5801 30.0117 47.2188 30.2793 47.6992 30.8145C48.1797 31.3457 48.4199 32.0684 48.4199 32.9824V33.0527C48.4199 33.9668 48.1582 34.707 47.6348 35.2734C47.1152 35.8398 46.4082 36.123 45.5137 36.123C44.6426 36.123 43.9395 35.834 43.4043 35.2559C42.8691 34.6777 42.6016 33.8887 42.6016 32.8887V32.4785C42.6016 31.1113 42.8438 30.0293 43.3281 29.2324C43.8125 28.4355 44.5352 27.9375 45.4961 27.7383C46.0352 27.6289 46.3828 27.5137 46.5391 27.3926C46.6992 27.2676 46.7793 27.0996 46.7793 26.8887H47.9277C47.9277 27.2832 47.8633 27.6035 47.7344 27.8496C47.6055 28.0957 47.4082 28.2969 47.1426 28.4531C46.877 28.6055 46.4199 28.75 45.7715 28.8867C45.1777 29.0117 44.7246 29.2344 44.4121 29.5547C44.1035 29.875 43.8965 30.3184 43.791 30.8848C44.3574 30.3027 45.0215 30.0117 45.7832 30.0117ZM45.502 31.1543C45.041 31.1543 44.6797 31.3105 44.418 31.623C44.1562 31.9316 44.0254 32.4082 44.0254 33.0527C44.0254 33.6621 44.1543 34.1367 44.4121 34.4766C44.6699 34.8164 45.0371 34.9863 45.5137 34.9863C45.9863 34.9863 46.3516 34.8164 46.6094 34.4766C46.8711 34.1328 47.002 33.6172 47.002 32.9297C47.002 32.3828 46.8711 31.9512 46.6094 31.6348C46.3516 31.3145 45.9824 31.1543 45.502 31.1543ZM54.9824 32.8945C54.9824 33.875 54.7598 34.6582 54.3145 35.2441C53.8691 35.8262 53.2715 36.1172 52.5215 36.1172C51.8262 36.1172 51.2695 35.8887 50.8516 35.4316V38.4375H49.4277V29.6602H50.7402L50.7988 30.3047C51.2168 29.7969 51.7852 29.543 52.5039 29.543C53.2773 29.543 53.8828 29.832 54.3203 30.4102C54.7617 30.9844 54.9824 31.7832 54.9824 32.8066V32.8945ZM53.5645 32.7715C53.5645 32.1387 53.4375 31.6367 53.1836 31.2656C52.9336 30.8945 52.5742 30.709 52.1055 30.709C51.5234 30.709 51.1055 30.9492 50.8516 31.4297V34.2422C51.1094 34.7344 51.5312 34.9805 52.1172 34.9805C52.5703 34.9805 52.9238 34.7988 53.1777 34.4355C53.4355 34.0684 53.5645 33.5137 53.5645 32.7715ZM59.9805 36C59.918 35.8789 59.8633 35.6816 59.8164 35.4082C59.3633 35.8809 58.8086 36.1172 58.1523 36.1172C57.5156 36.1172 56.9961 35.9355 56.5938 35.5723C56.1914 35.209 55.9902 34.7598 55.9902 34.2246C55.9902 33.5488 56.2402 33.0312 56.7402 32.6719C57.2441 32.3086 57.9629 32.127 58.8965 32.127H59.7695V31.7109C59.7695 31.3828 59.6777 31.1211 59.4941 30.9258C59.3105 30.7266 59.0312 30.627 58.6562 30.627C58.332 30.627 58.0664 30.709 57.8594 30.873C57.6523 31.0332 57.5488 31.2383 57.5488 31.4883H56.125C56.125 31.1406 56.2402 30.8164 56.4707 30.5156C56.7012 30.2109 57.0137 29.9727 57.4082 29.8008C57.8066 29.6289 58.25 29.543 58.7383 29.543C59.4805 29.543 60.0723 29.7305 60.5137 30.1055C60.9551 30.4766 61.1816 31 61.1934 31.6758V34.5352C61.1934 35.1055 61.2734 35.5605 61.4336 35.9004V36H59.9805ZM58.416 34.9746C58.6973 34.9746 58.9609 34.9062 59.207 34.7695C59.457 34.6328 59.6445 34.4492 59.7695 34.2188V33.0234H59.002C58.4746 33.0234 58.0781 33.1152 57.8125 33.2988C57.5469 33.4824 57.4141 33.7422 57.4141 34.0781C57.4141 34.3516 57.5039 34.5703 57.6836 34.7344C57.8672 34.8945 58.1113 34.9746 58.416 34.9746ZM67.5801 30.791H65.5234V36H64.0996V30.791H62.0664V29.6602H67.5801V30.791ZM70.0645 31.6758H71.459C71.9785 31.6758 72.4316 31.7656 72.8184 31.9453C73.2051 32.125 73.498 32.377 73.6973 32.7012C73.9004 33.0254 74.002 33.4023 74.002 33.832C74.002 34.4844 73.7715 35.0078 73.3105 35.4023C72.8496 35.7969 72.2363 35.9961 71.4707 36H68.6406V29.6602H70.0645V31.6758ZM70.0645 32.8184V34.8633H71.4531C71.8008 34.8633 72.0742 34.7773 72.2734 34.6055C72.4766 34.4297 72.5781 34.1816 72.5781 33.8613C72.5781 33.541 72.4785 33.2891 72.2793 33.1055C72.084 32.918 71.8184 32.8223 71.4824 32.8184H70.0645ZM82.0879 29.6602H83.5059V36H82.0879V31.7695L79.6035 36H78.1855V29.6602H79.6035V33.8906L82.0879 29.6602ZM89.8223 31.3945C89.8223 31.6758 89.7363 31.9355 89.5645 32.1738C89.3965 32.4082 89.1582 32.5957 88.8496 32.7363C89.5762 32.9902 89.9395 33.4805 89.9395 34.207C89.9395 34.7891 89.7031 35.2539 89.2305 35.6016C88.7578 35.9453 88.125 36.1172 87.332 36.1172C86.8477 36.1172 86.4062 36.0371 86.0078 35.877C85.6094 35.7129 85.2988 35.4824 85.0762 35.1855C84.8535 34.8848 84.7422 34.5293 84.7422 34.1191H86.1602C86.1602 34.377 86.2754 34.5938 86.5059 34.7695C86.7363 34.9414 87.0273 35.0273 87.3789 35.0273C87.7266 35.0273 88.002 34.9473 88.2051 34.7871C88.4121 34.623 88.5156 34.4102 88.5156 34.1484C88.5156 33.8398 88.4258 33.6172 88.2461 33.4805C88.0664 33.3438 87.7891 33.2754 87.4141 33.2754H86.3945V32.25H87.4492C88.0859 32.2422 88.4043 31.9805 88.4043 31.4648C88.4043 31.207 88.3125 31.0059 88.1289 30.8613C87.9453 30.7168 87.6934 30.6445 87.373 30.6445C87.0605 30.6445 86.7969 30.7227 86.582 30.8789C86.3672 31.0312 86.2598 31.2246 86.2598 31.459H84.8418C84.8418 30.9004 85.0762 30.4434 85.5449 30.0879C86.0137 29.7285 86.6094 29.5488 87.332 29.5488C88.1172 29.5488 88.7285 29.709 89.166 30.0293C89.6035 30.3496 89.8223 30.8047 89.8223 31.3945ZM96.7422 34.9805C97.0977 34.9805 97.3926 34.877 97.627 34.6699C97.8613 34.4629 97.9863 34.207 98.002 33.9023H99.3438C99.3281 34.2969 99.2051 34.666 98.9746 35.0098C98.7441 35.3496 98.4316 35.6191 98.0371 35.8184C97.6426 36.0176 97.2168 36.1172 96.7598 36.1172C95.873 36.1172 95.1699 35.8301 94.6504 35.2559C94.1309 34.6816 93.8711 33.8887 93.8711 32.877V32.7305C93.8711 31.7656 94.1289 30.9941 94.6445 30.416C95.1602 29.834 95.8633 29.543 96.7539 29.543C97.5078 29.543 98.1211 29.7637 98.5938 30.2051C99.0703 30.6426 99.3203 31.2188 99.3438 31.9336H98.002C97.9863 31.5703 97.8613 31.2715 97.627 31.0371C97.3965 30.8027 97.1016 30.6855 96.7422 30.6855C96.2812 30.6855 95.9258 30.8535 95.6758 31.1895C95.4258 31.5215 95.2988 32.0273 95.2949 32.707V32.9355C95.2949 33.623 95.418 34.1367 95.6641 34.4766C95.9141 34.8125 96.2734 34.9805 96.7422 34.9805ZM100.152 32.7715C100.152 32.1504 100.275 31.5918 100.521 31.0957C100.768 30.5957 101.113 30.2129 101.559 29.9473C102.004 29.6777 102.516 29.543 103.094 29.543C103.949 29.543 104.643 29.8184 105.174 30.3691C105.709 30.9199 105.998 31.6504 106.041 32.5605L106.047 32.8945C106.047 33.5195 105.926 34.0781 105.684 34.5703C105.445 35.0625 105.102 35.4434 104.652 35.7129C104.207 35.9824 103.691 36.1172 103.105 36.1172C102.211 36.1172 101.494 35.8203 100.955 35.2266C100.42 34.6289 100.152 33.834 100.152 32.8418V32.7715ZM101.576 32.8945C101.576 33.5469 101.711 34.0586 101.98 34.4297C102.25 34.7969 102.625 34.9805 103.105 34.9805C103.586 34.9805 103.959 34.793 104.225 34.418C104.494 34.043 104.629 33.4941 104.629 32.7715C104.629 32.1309 104.49 31.623 104.213 31.248C103.939 30.873 103.566 30.6855 103.094 30.6855C102.629 30.6855 102.26 30.8711 101.986 31.2422C101.713 31.6094 101.576 32.1602 101.576 32.8945ZM109.398 31.7461L110.605 29.6602H112.188L110.248 32.7832L112.252 36H110.682L109.416 33.832L108.156 36H106.574L108.578 32.7832L106.645 29.6602H108.215L109.398 31.7461ZM118.709 32.8945C118.709 33.875 118.486 34.6582 118.041 35.2441C117.596 35.8262 116.998 36.1172 116.248 36.1172C115.553 36.1172 114.996 35.8887 114.578 35.4316V38.4375H113.154V29.6602H114.467L114.525 30.3047C114.943 29.7969 115.512 29.543 116.23 29.543C117.004 29.543 117.609 29.832 118.047 30.4102C118.488 30.9844 118.709 31.7832 118.709 32.8066V32.8945ZM117.291 32.7715C117.291 32.1387 117.164 31.6367 116.91 31.2656C116.66 30.8945 116.301 30.709 115.832 30.709C115.25 30.709 114.832 30.9492 114.578 31.4297V34.2422C114.836 34.7344 115.258 34.9805 115.844 34.9805C116.297 34.9805 116.65 34.7988 116.904 34.4355C117.162 34.0684 117.291 33.5137 117.291 32.7715ZM123.707 36C123.645 35.8789 123.59 35.6816 123.543 35.4082C123.09 35.8809 122.535 36.1172 121.879 36.1172C121.242 36.1172 120.723 35.9355 120.32 35.5723C119.918 35.209 119.717 34.7598 119.717 34.2246C119.717 33.5488 119.967 33.0312 120.467 32.6719C120.971 32.3086 121.689 32.127 122.623 32.127H123.496V31.7109C123.496 31.3828 123.404 31.1211 123.221 30.9258C123.037 30.7266 122.758 30.627 122.383 30.627C122.059 30.627 121.793 30.709 121.586 30.873C121.379 31.0332 121.275 31.2383 121.275 31.4883H119.852C119.852 31.1406 119.967 30.8164 120.197 30.5156C120.428 30.2109 120.74 29.9727 121.135 29.8008C121.533 29.6289 121.977 29.543 122.465 29.543C123.207 29.543 123.799 29.7305 124.24 30.1055C124.682 30.4766 124.908 31 124.92 31.6758V34.5352C124.92 35.1055 125 35.5605 125.16 35.9004V36H123.707ZM122.143 34.9746C122.424 34.9746 122.688 34.9062 122.934 34.7695C123.184 34.6328 123.371 34.4492 123.496 34.2188V33.0234H122.729C122.201 33.0234 121.805 33.1152 121.539 33.2988C121.273 33.4824 121.141 33.7422 121.141 34.0781C121.141 34.3516 121.23 34.5703 121.41 34.7344C121.594 34.8945 121.838 34.9746 122.143 34.9746ZM131.781 36H130.357V33.4395H127.891V36H126.467V29.6602H127.891V32.3027H130.357V29.6602H131.781V36ZM136.094 36.1172C135.191 36.1172 134.459 35.834 133.896 35.2676C133.338 34.6973 133.059 33.9395 133.059 32.9941V32.8184C133.059 32.1855 133.18 31.6211 133.422 31.125C133.668 30.625 134.012 30.2363 134.453 29.959C134.895 29.6816 135.387 29.543 135.93 29.543C136.793 29.543 137.459 29.8184 137.928 30.3691C138.4 30.9199 138.637 31.6992 138.637 32.707V33.2812H134.494C134.537 33.8047 134.711 34.2188 135.016 34.5234C135.324 34.8281 135.711 34.9805 136.176 34.9805C136.828 34.9805 137.359 34.7168 137.77 34.1895L138.537 34.9219C138.283 35.3008 137.943 35.5957 137.518 35.8066C137.096 36.0137 136.621 36.1172 136.094 36.1172ZM135.924 30.6855C135.533 30.6855 135.217 30.8223 134.975 31.0957C134.736 31.3691 134.584 31.75 134.518 32.2383H137.23V32.1328C137.199 31.6562 137.072 31.2969 136.85 31.0547C136.627 30.8086 136.318 30.6855 135.924 30.6855ZM133.75 27.9961C133.75 27.8008 133.814 27.6367 133.943 27.5039C134.076 27.3711 134.258 27.3047 134.488 27.3047C134.719 27.3047 134.9 27.3711 135.033 27.5039C135.166 27.6367 135.232 27.8008 135.232 27.9961C135.232 28.1914 135.166 28.3555 135.033 28.4883C134.9 28.6211 134.719 28.6875 134.488 28.6875C134.258 28.6875 134.076 28.6211 133.943 28.4883C133.814 28.3555 133.75 28.1914 133.75 27.9961ZM136.428 28.002C136.428 27.8066 136.492 27.6426 136.621 27.5098C136.754 27.377 136.936 27.3105 137.166 27.3105C137.396 27.3105 137.578 27.377 137.711 27.5098C137.844 27.6426 137.91 27.8066 137.91 28.002C137.91 28.1973 137.844 28.3613 137.711 28.4941C137.578 28.627 137.396 28.6934 137.166 28.6934C136.936 28.6934 136.754 28.627 136.621 28.4941C136.492 28.3613 136.428 28.1973 136.428 28.002ZM145.117 36H143.693V33.4395H141.227V36H139.803V29.6602H141.227V32.3027H143.693V29.6602H145.117V36ZM152.008 36H150.584V33.4395H148.117V36H146.693V29.6602H148.117V32.3027H150.584V29.6602H152.008V36ZM155.061 31.6758H156.455C156.975 31.6758 157.428 31.7656 157.814 31.9453C158.201 32.125 158.494 32.377 158.693 32.7012C158.896 33.0254 158.998 33.4023 158.998 33.832C158.998 34.4844 158.768 35.0078 158.307 35.4023C157.846 35.7969 157.232 35.9961 156.467 36H153.637V29.6602H155.061V31.6758ZM161.477 36H160.053V29.6602H161.477V36ZM155.061 32.8184V34.8633H156.449C156.797 34.8633 157.07 34.7773 157.27 34.6055C157.473 34.4297 157.574 34.1816 157.574 33.8613C157.574 33.541 157.475 33.2891 157.275 33.1055C157.08 32.918 156.814 32.8223 156.479 32.8184H155.061ZM165.461 31.7461L166.668 29.6602H168.25L166.311 32.7832L168.314 36H166.744L165.479 33.832L164.219 36H162.637L164.641 32.7832L162.707 29.6602H164.277L165.461 31.7461Z" fill="black"/>
<defs>
<filter id="filter0_d" x="0" y="0" width="203" height="84" filterUnits="userSpaceOnUse" color-interpolation-filters="sRGB">
<feFlood flood-opacity="0" result="BackgroundImageFix"/>
<feColorMatrix in="SourceAlpha" type="matrix" values="0 0 0 0 0 0 0 0 0 0 0 0 0 0 0 0 0 0 127 0"/>
<feOffset dy="10"/>
<feGaussianBlur stdDeviation="11"/>
<feColorMatrix type="matrix" values="0 0 0 0 0.231373 0 0 0 0 0.290196 0 0 0 0 0.454902 0 0 0 0.1 0"/>
<feBlend mode="normal" in2="BackgroundImageFix" result="effect1_dropShadow"/>
<feBlend mode="normal" in="SourceGraphic" in2="effect1_dropShadow" result="shape"/>
</filter>
</defs>
</svg>
