<svg width="203" height="84" fill="none" xmlns="http://www.w3.org/2000/svg"><g filter="url(#filter0_d)"><path fill-rule="evenodd" clip-rule="evenodd" d="M22 22c0-5.523 4.477-10 10-10h139c5.523 0 10 4.477 10 10v20c0 5.523-4.477 10-10 10H32c-5.523 0-10-4.477-10-10V22z" fill="#fff"/></g><path d="M38.447 31.928l1.711-4.46h1.647l-2.971 7.079-.27.533c-.39.695-1.023 1.043-1.898 1.043l-.61-.035.012-1.172c.094.016.26.024.498.024.422 0 .72-.18.891-.54l.305-.72-2.918-6.211h1.617l1.986 4.459zm7.336-1.916c.797 0 1.436.267 1.916.802.48.532.72 1.254.72 2.168v.07c0 .915-.26 1.655-.784 2.221-.52.567-1.227.85-2.121.85-.871 0-1.575-.289-2.11-.867-.535-.578-.802-1.367-.802-2.367v-.41c0-1.368.242-2.45.726-3.247.484-.796 1.207-1.294 2.168-1.494.54-.11.887-.224 1.043-.345a.606.606 0 00.24-.504h1.149c0 .394-.065.715-.194.96a1.512 1.512 0 01-.591.604c-.266.152-.723.297-1.371.434-.594.125-1.047.347-1.36.668-.309.32-.515.763-.621 1.33.566-.582 1.23-.873 1.992-.873zm-.281 1.142c-.461 0-.822.157-1.084.469-.262.309-.393.785-.393 1.43 0 .61.13 1.084.387 1.424.258.34.625.51 1.102.51.472 0 .838-.17 1.095-.51.262-.344.393-.86.393-1.547 0-.547-.13-.979-.393-1.295-.257-.32-.627-.48-1.107-.48zm9.48 1.74c0 .981-.222 1.764-.667 2.35-.446.582-1.043.873-1.793.873-.696 0-1.252-.228-1.67-.685v3.005h-1.424V29.66h1.312l.059.645c.418-.508.986-.762 1.705-.762.773 0 1.379.289 1.816.867.442.574.662 1.373.662 2.397v.087zm-1.417-.122c0-.633-.127-1.135-.381-1.506-.25-.371-.61-.557-1.078-.557-.583 0-1 .24-1.254.72v2.813c.257.492.68.739 1.265.739.453 0 .807-.182 1.06-.546.258-.367.388-.921.388-1.663zM59.98 36c-.063-.121-.118-.318-.165-.592a2.216 2.216 0 01-1.664.71c-.636 0-1.156-.183-1.558-.546a1.743 1.743 0 01-.604-1.347c0-.676.25-1.194.75-1.553.504-.363 1.223-.545 2.157-.545h.873v-.416c0-.328-.092-.59-.276-.785-.184-.2-.463-.299-.838-.299-.324 0-.59.082-.797.246a.745.745 0 00-.31.615h-1.424c0-.347.115-.672.346-.972.23-.305.543-.543.937-.715a3.324 3.324 0 011.33-.258c.742 0 1.334.188 1.776.563.441.37.668.894.68 1.57v2.86c0 .57.08 1.024.24 1.364v.1H59.98zm-1.565-1.025c.281 0 .545-.069.791-.206.25-.136.438-.32.563-.55v-1.196h-.768c-.527 0-.924.092-1.19.276a.892.892 0 00-.398.78c0 .273.09.491.27.655.183.16.427.24.732.24zm9.164-4.184h-2.057V36H64.1v-5.209h-2.034v-1.13h5.514v1.13zm2.484.885h1.395c.52 0 .973.09 1.36.27.386.179.679.431.878.755.203.324.305.701.305 1.131 0 .652-.23 1.176-.691 1.57-.461.395-1.075.594-1.84.598h-2.83v-6.34h1.423v2.016zm0 1.142v2.045h1.39c.347 0 .62-.086.82-.258.203-.175.304-.423.304-.744 0-.32-.1-.572-.299-.755-.195-.188-.46-.284-.797-.288h-1.418zm12.024-3.158h1.418V36h-1.418v-4.23L79.604 36h-1.418v-6.34h1.417v4.23l2.485-4.23zm7.734 1.735c0 .28-.086.54-.258.779a1.744 1.744 0 01-.714.562c.726.254 1.09.745 1.09 1.471 0 .582-.237 1.047-.71 1.395-.472.343-1.105.515-1.898.515-.484 0-.926-.08-1.324-.24-.399-.164-.71-.395-.932-.692a1.742 1.742 0 01-.334-1.066h1.418c0 .258.115.475.346.65.23.172.521.258.873.258.348 0 .623-.08.826-.24a.777.777 0 00.31-.639c0-.308-.09-.53-.269-.668-.18-.136-.457-.205-.832-.205h-1.02V32.25h1.055c.637-.008.955-.27.955-.785 0-.258-.091-.46-.275-.604-.184-.144-.436-.216-.756-.216-.313 0-.576.078-.791.234-.215.152-.322.346-.322.58h-1.418c0-.559.234-1.016.703-1.371.469-.36 1.064-.54 1.787-.54.785 0 1.397.161 1.834.481.438.32.656.776.656 1.366zm6.92 3.585c.356 0 .65-.103.885-.31a1.06 1.06 0 00.375-.768h1.342a2.107 2.107 0 01-.37 1.108c-.23.34-.542.61-.937.808-.394.2-.82.3-1.277.3-.887 0-1.59-.288-2.11-.862-.52-.574-.779-1.367-.779-2.379v-.147c0-.964.258-1.736.773-2.314.516-.582 1.22-.873 2.11-.873.754 0 1.367.22 1.84.662.476.438.726 1.014.75 1.729h-1.342a1.298 1.298 0 00-.375-.897c-.23-.234-.525-.351-.885-.351-.46 0-.816.168-1.066.503-.25.332-.377.838-.381 1.518v.228c0 .688.123 1.202.37 1.542.25.336.608.504 1.077.504zm3.41-2.208c0-.622.123-1.18.369-1.676a2.68 2.68 0 011.038-1.149c.445-.27.957-.404 1.535-.404.855 0 1.549.275 2.08.826.535.55.824 1.281.867 2.191l.006.334c0 .626-.121 1.184-.363 1.676a2.64 2.64 0 01-1.032 1.143c-.445.27-.961.404-1.547.404-.894 0-1.611-.297-2.15-.89-.535-.598-.803-1.393-.803-2.385v-.07zm1.424.123c0 .652.135 1.164.404 1.535.27.367.645.55 1.125.55.481 0 .854-.187 1.12-.562.269-.375.404-.924.404-1.646 0-.641-.139-1.149-.416-1.524a1.313 1.313 0 00-1.119-.563c-.465 0-.834.186-1.108.557-.273.367-.41.918-.41 1.652zm7.822-1.149l1.207-2.086h1.583l-1.94 3.123L112.252 36h-1.57l-1.266-2.168-1.26 2.168h-1.582l2.004-3.217-1.933-3.123h1.57l1.183 2.086zm9.311 1.149c0 .98-.223 1.763-.668 2.35-.445.581-1.043.872-1.793.872-.695 0-1.252-.228-1.67-.685v3.005h-1.424V29.66h1.313l.058.645c.418-.508.987-.762 1.705-.762.774 0 1.379.289 1.817.867.441.574.662 1.373.662 2.397v.087zm-1.418-.123c0-.633-.127-1.135-.381-1.506-.25-.371-.609-.557-1.078-.557-.582 0-1 .24-1.254.72v2.813c.258.492.68.739 1.266.739.453 0 .806-.182 1.06-.546.258-.367.387-.921.387-1.663zM123.707 36c-.062-.121-.117-.318-.164-.592a2.216 2.216 0 01-1.664.71c-.637 0-1.156-.183-1.559-.546a1.744 1.744 0 01-.603-1.347c0-.676.25-1.194.75-1.553.504-.363 1.222-.545 2.156-.545h.873v-.416c0-.328-.092-.59-.275-.785-.184-.2-.463-.299-.838-.299-.324 0-.59.082-.797.246a.745.745 0 00-.311.615h-1.423c0-.347.115-.672.345-.972.231-.305.543-.543.938-.715a3.323 3.323 0 011.33-.258c.742 0 1.334.188 1.775.563.442.37.668.894.68 1.57v2.86c0 .57.08 1.024.24 1.364v.1h-1.453zm-1.564-1.025c.281 0 .545-.069.791-.206.25-.136.437-.32.562-.55v-1.196h-.767c-.528 0-.924.092-1.19.276a.891.891 0 00-.398.78c0 .273.089.491.269.655.184.16.428.24.733.24zM131.781 36h-1.424v-2.56h-2.466V36h-1.424v-6.34h1.424v2.643h2.466V29.66h1.424V36zm4.313.117c-.903 0-1.635-.283-2.198-.85-.558-.57-.837-1.328-.837-2.273v-.176c0-.633.121-1.197.363-1.693.246-.5.59-.889 1.031-1.166a2.72 2.72 0 011.477-.416c.863 0 1.529.275 1.998.826.472.55.709 1.33.709 2.338v.574h-4.143c.043.524.217.938.522 1.242.308.305.695.457 1.16.457.652 0 1.183-.263 1.594-.79l.767.732a2.585 2.585 0 01-1.019.885 3.19 3.19 0 01-1.424.31zm-.17-5.431c-.391 0-.707.136-.949.41-.239.273-.391.654-.457 1.142h2.712v-.105c-.031-.477-.158-.836-.38-1.078-.223-.246-.532-.37-.926-.37zm-2.174-2.69c0-.195.064-.36.193-.492.133-.133.315-.2.545-.2.231 0 .412.067.545.2a.668.668 0 01.199.492c0 .195-.066.36-.199.492-.133.133-.314.2-.545.2-.23 0-.412-.067-.545-.2a.679.679 0 01-.193-.492zm2.678.006c0-.195.064-.36.193-.492.133-.133.315-.2.545-.2.23 0 .412.067.545.2a.668.668 0 01.199.492c0 .195-.066.36-.199.492-.133.133-.315.2-.545.2-.23 0-.412-.067-.545-.2a.678.678 0 01-.193-.492zM145.117 36h-1.424v-2.56h-2.466V36h-1.424v-6.34h1.424v2.643h2.466V29.66h1.424V36zm6.891 0h-1.424v-2.56h-2.467V36h-1.424v-6.34h1.424v2.643h2.467V29.66h1.424V36zm3.053-4.324h1.394c.52 0 .973.09 1.359.27.387.179.68.431.879.755.203.324.305.701.305 1.131 0 .652-.23 1.176-.691 1.57-.461.395-1.075.594-1.84.598h-2.83v-6.34h1.424v2.016zM161.477 36h-1.424v-6.34h1.424V36zm-6.416-3.182v2.045h1.388c.348 0 .621-.086.821-.258.203-.175.304-.423.304-.744 0-.32-.099-.572-.299-.755-.195-.188-.461-.284-.796-.288h-1.418zm10.4-1.072l1.207-2.086h1.582l-1.939 3.123L168.314 36h-1.57l-1.265-2.168-1.26 2.168h-1.582l2.004-3.217-1.934-3.123h1.57l1.184 2.086z" fill="#000"/><defs><filter id="filter0_d" x="0" y="0" width="203" height="84" filterUnits="userSpaceOnUse" color-interpolation-filters="sRGB"><feFlood flood-opacity="0" result="BackgroundImageFix"/><feColorMatrix in="SourceAlpha" values="0 0 0 0 0 0 0 0 0 0 0 0 0 0 0 0 0 0 127 0"/><feOffset dy="10"/><feGaussianBlur stdDeviation="11"/><feColorMatrix values="0 0 0 0 0.231373 0 0 0 0 0.290196 0 0 0 0 0.454902 0 0 0 0.1 0"/><feBlend in2="BackgroundImageFix" result="effect1_dropShadow"/><feBlend in="SourceGraphic" in2="effect1_dropShadow" result="shape"/></filter></defs></svg>