<svg width="226" height="84" viewBox="0 0 226 84" fill="none" xmlns="http://www.w3.org/2000/svg">
<g filter="url(#filter0_d)">
<path fill-rule="evenodd" clip-rule="evenodd" d="M22 22C22 16.4772 26.4772 12 32 12H194C199.523 12 204 16.4772 204 22V42C204 47.5228 199.523 52 194 52H32C26.4772 52 22 47.5228 22 42V22Z" fill="white"/>
</g>
<path d="M34.1133 35V27.8906H36.5498C37.3538 27.8906 37.9658 28.0518 38.3857 28.374C38.8057 28.6963 39.0156 29.1764 39.0156 29.8145C39.0156 30.14 38.9277 30.4329 38.752 30.6934C38.5762 30.9538 38.319 31.1556 37.9805 31.2988C38.3646 31.403 38.6608 31.5999 38.8691 31.8896C39.0807 32.1761 39.1865 32.5212 39.1865 32.9248C39.1865 33.5921 38.9717 34.1048 38.542 34.4629C38.1156 34.821 37.5036 35 36.7061 35H34.1133ZM35.3486 31.792V34.0137H36.7207C37.1081 34.0137 37.4108 33.9176 37.6289 33.7256C37.847 33.5335 37.9561 33.2666 37.9561 32.9248C37.9561 32.1859 37.5785 31.8083 36.8232 31.792H35.3486ZM35.3486 30.8838H36.5596C36.9437 30.8838 37.2432 30.7975 37.458 30.625C37.6761 30.4492 37.7852 30.2018 37.7852 29.8828C37.7852 29.5312 37.6842 29.2773 37.4824 29.1211C37.2839 28.9648 36.973 28.8867 36.5498 28.8867H35.3486V30.8838ZM40.085 32.3096C40.085 31.792 40.1875 31.3265 40.3926 30.9131C40.5977 30.4964 40.8857 30.1774 41.2568 29.9561C41.6279 29.7314 42.0544 29.6191 42.5361 29.6191C43.249 29.6191 43.8268 29.8486 44.2695 30.3076C44.7155 30.7666 44.9564 31.3753 44.9922 32.1338L44.9971 32.4121C44.9971 32.9329 44.8962 33.3984 44.6943 33.8086C44.4958 34.2188 44.2093 34.5361 43.835 34.7607C43.4639 34.9854 43.0342 35.0977 42.5459 35.0977C41.8005 35.0977 41.2031 34.8503 40.7539 34.3555C40.3079 33.8574 40.085 33.195 40.085 32.3682V32.3096ZM41.2715 32.4121C41.2715 32.9557 41.3838 33.3822 41.6084 33.6914C41.833 33.9974 42.1455 34.1504 42.5459 34.1504C42.9463 34.1504 43.2572 33.9941 43.4785 33.6816C43.7031 33.3691 43.8154 32.9118 43.8154 32.3096C43.8154 31.7757 43.6999 31.3525 43.4688 31.04C43.2409 30.7275 42.93 30.5713 42.5361 30.5713C42.1488 30.5713 41.8411 30.7259 41.6133 31.0352C41.3854 31.3411 41.2715 31.8001 41.2715 32.4121ZM49.2988 29.7168H50.4805V35H49.2988V31.4746L47.2285 35H46.0469V29.7168H47.2285V33.2422L49.2988 29.7168ZM49.8555 27.6904C49.8555 28.1006 49.7122 28.4326 49.4258 28.6865C49.1393 28.9404 48.7568 29.0674 48.2783 29.0674C47.7998 29.0674 47.4173 28.9404 47.1309 28.6865C46.8444 28.4326 46.7012 28.1006 46.7012 27.6904H47.5898C47.5898 27.9053 47.6501 28.0729 47.7705 28.1934C47.8942 28.3105 48.0635 28.3691 48.2783 28.3691C48.4932 28.3691 48.6608 28.3105 48.7812 28.1934C48.9017 28.0729 48.9619 27.9053 48.9619 27.6904H49.8555ZM51.7646 34.0527C52.0934 33.6849 52.3132 33.3366 52.4238 33.0078C52.5378 32.6758 52.6061 32.2526 52.6289 31.7383L52.6973 29.7168H56.3643V34.0527H57.0967V36.5723H55.915V35H52.5264V36.5723H51.3252L51.3301 34.0527H51.7646ZM53.1562 34.0527H55.1826V30.7373H53.8496L53.8154 31.748C53.7699 32.7181 53.5501 33.4863 53.1562 34.0527ZM61.1543 29.7168H62.3359V35H61.1543V31.4746L59.084 35H57.9023V29.7168H59.084V33.2422L61.1543 29.7168ZM67.7559 30.6592H66.042V35H64.8555V30.6592H63.1611V29.7168H67.7559V30.6592ZM70.5635 35.0977C69.8115 35.0977 69.2012 34.8617 68.7324 34.3896C68.2669 33.9144 68.0342 33.2829 68.0342 32.4951V32.3486C68.0342 31.8213 68.1351 31.3509 68.3369 30.9375C68.542 30.5208 68.8285 30.1969 69.1963 29.9658C69.5641 29.7347 69.9743 29.6191 70.4268 29.6191C71.1462 29.6191 71.7012 29.8486 72.0918 30.3076C72.4857 30.7666 72.6826 31.416 72.6826 32.2559V32.7344H69.2305C69.2663 33.1706 69.4111 33.5156 69.665 33.7695C69.9222 34.0234 70.2445 34.1504 70.6318 34.1504C71.1755 34.1504 71.6182 33.9307 71.96 33.4912L72.5996 34.1016C72.388 34.4173 72.1048 34.6631 71.75 34.8389C71.3984 35.0114 71.0029 35.0977 70.5635 35.0977ZM70.4219 30.5713C70.0964 30.5713 69.8327 30.6852 69.6309 30.9131C69.4323 31.141 69.3053 31.4583 69.25 31.8652H71.5107V31.7773C71.4847 31.3802 71.3789 31.0807 71.1934 30.8789C71.0078 30.6738 70.7507 30.5713 70.4219 30.5713ZM73.7764 36.6016L73.1367 36.2207C73.3255 35.9245 73.4541 35.6657 73.5225 35.4443C73.5941 35.2262 73.6315 35.0033 73.6348 34.7754V33.8525H74.7041L74.6992 34.707C74.696 35.0521 74.6081 35.3971 74.4355 35.7422C74.2663 36.0905 74.0465 36.377 73.7764 36.6016ZM82.5312 35H81.3447V33.2373C81.0387 33.3089 80.7165 33.3447 80.3779 33.3447C79.6553 33.3447 79.1035 33.1722 78.7227 32.8271C78.3418 32.4788 78.1514 31.9808 78.1514 31.333V29.7119H79.3379V31.333C79.3379 31.7171 79.4225 31.9889 79.5918 32.1484C79.7643 32.3079 80.0264 32.3877 80.3779 32.3877C80.6969 32.3877 81.0192 32.3503 81.3447 32.2754V29.7168H82.5312V35ZM87.9512 30.6592H86.2373V35H85.0508V30.6592H83.3564V29.7168H87.9512V30.6592ZM88.376 32.3096C88.376 31.792 88.4785 31.3265 88.6836 30.9131C88.8887 30.4964 89.1768 30.1774 89.5479 29.9561C89.9189 29.7314 90.3454 29.6191 90.8271 29.6191C91.54 29.6191 92.1178 29.8486 92.5605 30.3076C93.0065 30.7666 93.2474 31.3753 93.2832 32.1338L93.2881 32.4121C93.2881 32.9329 93.1872 33.3984 92.9854 33.8086C92.7868 34.2188 92.5003 34.5361 92.126 34.7607C91.7549 34.9854 91.3252 35.0977 90.8369 35.0977C90.0915 35.0977 89.4941 34.8503 89.0449 34.3555C88.599 33.8574 88.376 33.195 88.376 32.3682V32.3096ZM89.5625 32.4121C89.5625 32.9557 89.6748 33.3822 89.8994 33.6914C90.124 33.9974 90.4365 34.1504 90.8369 34.1504C91.2373 34.1504 91.5482 33.9941 91.7695 33.6816C91.9941 33.3691 92.1064 32.9118 92.1064 32.3096C92.1064 31.7757 91.9909 31.3525 91.7598 31.04C91.5319 30.7275 91.221 30.5713 90.8271 30.5713C90.4398 30.5713 90.1322 30.7259 89.9043 31.0352C89.6764 31.3411 89.5625 31.8001 89.5625 32.4121ZM96.7793 30.0098C97.4434 30.0098 97.9756 30.2327 98.376 30.6787C98.7764 31.1214 98.9766 31.7236 98.9766 32.4854V32.5439C98.9766 33.3057 98.7585 33.9225 98.3223 34.3945C97.8893 34.8665 97.3001 35.1025 96.5547 35.1025C95.8288 35.1025 95.2428 34.8617 94.7969 34.3799C94.3509 33.8981 94.1279 33.2406 94.1279 32.4072V32.0654C94.1279 30.9261 94.3298 30.0244 94.7334 29.3604C95.137 28.6963 95.7393 28.2812 96.54 28.1152C96.9893 28.0241 97.279 27.9281 97.4092 27.8271C97.5426 27.723 97.6094 27.583 97.6094 27.4072H98.5664C98.5664 27.736 98.5127 28.0029 98.4053 28.208C98.2979 28.4131 98.1335 28.5807 97.9121 28.7109C97.6908 28.8379 97.3099 28.9583 96.7695 29.0723C96.2747 29.1764 95.8971 29.362 95.6367 29.6289C95.3796 29.8958 95.207 30.2653 95.1191 30.7373C95.5911 30.2523 96.1445 30.0098 96.7793 30.0098ZM96.5449 30.9619C96.1608 30.9619 95.8597 31.0921 95.6416 31.3525C95.4235 31.6097 95.3145 32.0068 95.3145 32.5439C95.3145 33.0518 95.4219 33.4473 95.6367 33.7305C95.8516 34.0137 96.1576 34.1553 96.5547 34.1553C96.9486 34.1553 97.2529 34.0137 97.4678 33.7305C97.6859 33.444 97.7949 33.0143 97.7949 32.4414C97.7949 31.9857 97.6859 31.626 97.4678 31.3623C97.2529 31.0954 96.9453 30.9619 96.5449 30.9619ZM101.184 31.3965H102.346C102.779 31.3965 103.156 31.4714 103.479 31.6211C103.801 31.7708 104.045 31.9808 104.211 32.251C104.38 32.5212 104.465 32.8353 104.465 33.1934C104.465 33.737 104.273 34.1732 103.889 34.502C103.505 34.8307 102.993 34.9967 102.355 35H99.9971V29.7168H101.184V31.3965ZM106.53 35H105.344V29.7168H106.53V35ZM101.184 32.3486V34.0527H102.341C102.631 34.0527 102.858 33.9811 103.024 33.8379C103.194 33.6914 103.278 33.4847 103.278 33.2178C103.278 32.9508 103.195 32.7409 103.029 32.5879C102.867 32.4316 102.645 32.3519 102.365 32.3486H101.184ZM112.614 34.1504C112.91 34.1504 113.156 34.0641 113.352 33.8916C113.547 33.7191 113.651 33.5059 113.664 33.252H114.782C114.769 33.5807 114.667 33.8883 114.475 34.1748C114.283 34.458 114.022 34.6826 113.693 34.8486C113.365 35.0146 113.01 35.0977 112.629 35.0977C111.89 35.0977 111.304 34.8584 110.871 34.3799C110.438 33.9014 110.222 33.2406 110.222 32.3975V32.2754C110.222 31.4714 110.437 30.8285 110.866 30.3467C111.296 29.8617 111.882 29.6191 112.624 29.6191C113.252 29.6191 113.763 29.8031 114.157 30.1709C114.554 30.5355 114.763 31.0156 114.782 31.6113H113.664C113.651 31.3086 113.547 31.0596 113.352 30.8643C113.16 30.6689 112.914 30.5713 112.614 30.5713C112.23 30.5713 111.934 30.7113 111.726 30.9912C111.517 31.2679 111.411 31.6895 111.408 32.2559V32.4463C111.408 33.0192 111.511 33.4473 111.716 33.7305C111.924 34.0104 112.224 34.1504 112.614 34.1504ZM115.456 32.3096C115.456 31.792 115.559 31.3265 115.764 30.9131C115.969 30.4964 116.257 30.1774 116.628 29.9561C116.999 29.7314 117.425 29.6191 117.907 29.6191C118.62 29.6191 119.198 29.8486 119.641 30.3076C120.087 30.7666 120.327 31.3753 120.363 32.1338L120.368 32.4121C120.368 32.9329 120.267 33.3984 120.065 33.8086C119.867 34.2188 119.58 34.5361 119.206 34.7607C118.835 34.9854 118.405 35.0977 117.917 35.0977C117.172 35.0977 116.574 34.8503 116.125 34.3555C115.679 33.8574 115.456 33.195 115.456 32.3682V32.3096ZM116.643 32.4121C116.643 32.9557 116.755 33.3822 116.979 33.6914C117.204 33.9974 117.517 34.1504 117.917 34.1504C118.317 34.1504 118.628 33.9941 118.85 33.6816C119.074 33.3691 119.187 32.9118 119.187 32.3096C119.187 31.7757 119.071 31.3525 118.84 31.04C118.612 30.7275 118.301 30.5713 117.907 30.5713C117.52 30.5713 117.212 30.7259 116.984 31.0352C116.757 31.3411 116.643 31.8001 116.643 32.4121ZM123.161 31.4551L124.167 29.7168H125.485L123.869 32.3193L125.539 35H124.23L123.176 33.1934L122.126 35H120.808L122.478 32.3193L120.866 29.7168H122.175L123.161 31.4551ZM130.92 32.4121C130.92 33.2292 130.734 33.8818 130.363 34.3701C129.992 34.8551 129.494 35.0977 128.869 35.0977C128.29 35.0977 127.826 34.9072 127.478 34.5264V37.0312H126.291V29.7168H127.385L127.434 30.2539C127.782 29.8307 128.256 29.6191 128.854 29.6191C129.499 29.6191 130.004 29.86 130.368 30.3418C130.736 30.8203 130.92 31.486 130.92 32.3389V32.4121ZM129.738 32.3096C129.738 31.7822 129.632 31.3639 129.421 31.0547C129.213 30.7454 128.913 30.5908 128.522 30.5908C128.037 30.5908 127.689 30.791 127.478 31.1914V33.5352C127.692 33.9453 128.044 34.1504 128.532 34.1504C128.91 34.1504 129.204 33.999 129.416 33.6963C129.631 33.3903 129.738 32.9281 129.738 32.3096ZM135.085 35C135.033 34.8991 134.987 34.7347 134.948 34.5068C134.571 34.9007 134.108 35.0977 133.562 35.0977C133.031 35.0977 132.598 34.9463 132.263 34.6436C131.927 34.3408 131.76 33.9665 131.76 33.5205C131.76 32.9574 131.968 32.526 132.385 32.2266C132.805 31.9238 133.404 31.7725 134.182 31.7725H134.909V31.4258C134.909 31.1523 134.833 30.9342 134.68 30.7715C134.527 30.6055 134.294 30.5225 133.981 30.5225C133.711 30.5225 133.49 30.5908 133.317 30.7275C133.145 30.861 133.059 31.0319 133.059 31.2402H131.872C131.872 30.9505 131.968 30.6803 132.16 30.4297C132.352 30.1758 132.613 29.9772 132.941 29.834C133.273 29.6908 133.643 29.6191 134.05 29.6191C134.668 29.6191 135.161 29.7754 135.529 30.0879C135.897 30.3971 136.086 30.8333 136.096 31.3965V33.7793C136.096 34.2546 136.162 34.6338 136.296 34.917V35H135.085ZM133.781 34.1455C134.016 34.1455 134.235 34.0885 134.44 33.9746C134.649 33.8607 134.805 33.7077 134.909 33.5156V32.5195H134.27C133.83 32.5195 133.5 32.596 133.278 32.749C133.057 32.902 132.946 33.1185 132.946 33.3984C132.946 33.6263 133.021 33.8086 133.171 33.9453C133.324 34.0788 133.527 34.1455 133.781 34.1455ZM141.813 35H140.627V32.8662H138.571V35H137.385V29.7168H138.571V31.9189H140.627V29.7168H141.813V35ZM147.312 29.7168V35H146.13V33.0615H145.021L143.894 35H142.663L143.908 32.8662C143.583 32.7295 143.332 32.5342 143.156 32.2803C142.984 32.0264 142.897 31.735 142.897 31.4062C142.897 30.9147 143.086 30.5127 143.464 30.2002C143.845 29.8844 144.357 29.7233 145.002 29.7168H147.312ZM144.084 31.4355C144.084 31.6569 144.165 31.8376 144.328 31.9775C144.494 32.1143 144.706 32.1826 144.963 32.1826H146.13V30.6592H145.036C144.746 30.6592 144.515 30.7324 144.343 30.8789C144.17 31.0254 144.084 31.2109 144.084 31.4355ZM152.785 30.6592H151.071V35H149.885V30.6592H148.19V29.7168H152.785V30.6592ZM154.855 31.3965H156.018C156.451 31.3965 156.828 31.4714 157.15 31.6211C157.473 31.7708 157.717 31.9808 157.883 32.251C158.052 32.5212 158.137 32.8353 158.137 33.1934C158.137 33.737 157.945 34.1732 157.561 34.502C157.176 34.8307 156.665 34.9967 156.027 35H153.669V29.7168H154.855V31.3965ZM154.855 32.3486V34.0527H156.013C156.302 34.0527 156.53 33.9811 156.696 33.8379C156.866 33.6914 156.95 33.4847 156.95 33.2178C156.95 32.9508 156.867 32.7409 156.701 32.5879C156.538 32.4316 156.317 32.3519 156.037 32.3486H154.855ZM163.747 34.1504C164.043 34.1504 164.289 34.0641 164.484 33.8916C164.68 33.7191 164.784 33.5059 164.797 33.252H165.915C165.902 33.5807 165.799 33.8883 165.607 34.1748C165.415 34.458 165.155 34.6826 164.826 34.8486C164.497 35.0146 164.143 35.0977 163.762 35.0977C163.023 35.0977 162.437 34.8584 162.004 34.3799C161.571 33.9014 161.354 33.2406 161.354 32.3975V32.2754C161.354 31.4714 161.569 30.8285 161.999 30.3467C162.429 29.8617 163.015 29.6191 163.757 29.6191C164.385 29.6191 164.896 29.8031 165.29 30.1709C165.687 30.5355 165.896 31.0156 165.915 31.6113H164.797C164.784 31.3086 164.68 31.0596 164.484 30.8643C164.292 30.6689 164.047 30.5713 163.747 30.5713C163.363 30.5713 163.067 30.7113 162.858 30.9912C162.65 31.2679 162.544 31.6895 162.541 32.2559V32.4463C162.541 33.0192 162.644 33.4473 162.849 33.7305C163.057 34.0104 163.356 34.1504 163.747 34.1504ZM170.969 30.6592H169.255V35H168.068V30.6592H166.374V29.7168H170.969V30.6592ZM174.841 35C174.789 34.8991 174.743 34.7347 174.704 34.5068C174.326 34.9007 173.864 35.0977 173.317 35.0977C172.787 35.0977 172.354 34.9463 172.019 34.6436C171.683 34.3408 171.516 33.9665 171.516 33.5205C171.516 32.9574 171.724 32.526 172.141 32.2266C172.561 31.9238 173.16 31.7725 173.938 31.7725H174.665V31.4258C174.665 31.1523 174.589 30.9342 174.436 30.7715C174.283 30.6055 174.05 30.5225 173.737 30.5225C173.467 30.5225 173.246 30.5908 173.073 30.7275C172.901 30.861 172.814 31.0319 172.814 31.2402H171.628C171.628 30.9505 171.724 30.6803 171.916 30.4297C172.108 30.1758 172.368 29.9772 172.697 29.834C173.029 29.6908 173.399 29.6191 173.806 29.6191C174.424 29.6191 174.917 29.7754 175.285 30.0879C175.653 30.3971 175.842 30.8333 175.852 31.3965V33.7793C175.852 34.2546 175.918 34.6338 176.052 34.917V35H174.841ZM173.537 34.1455C173.771 34.1455 173.991 34.0885 174.196 33.9746C174.405 33.8607 174.561 33.7077 174.665 33.5156V32.5195H174.025C173.586 32.5195 173.256 32.596 173.034 32.749C172.813 32.902 172.702 33.1185 172.702 33.3984C172.702 33.6263 172.777 33.8086 172.927 33.9453C173.08 34.0788 173.283 34.1455 173.537 34.1455ZM181.174 30.6592H179.46V35H178.273V30.6592H176.579V29.7168H181.174V30.6592ZM183.244 31.3965H184.406C184.839 31.3965 185.217 31.4714 185.539 31.6211C185.861 31.7708 186.105 31.9808 186.271 32.251C186.441 32.5212 186.525 32.8353 186.525 33.1934C186.525 33.737 186.333 34.1732 185.949 34.502C185.565 34.8307 185.054 34.9967 184.416 35H182.058V29.7168H183.244V31.3965ZM183.244 32.3486V34.0527H184.401C184.691 34.0527 184.919 33.9811 185.085 33.8379C185.254 33.6914 185.339 33.4847 185.339 33.2178C185.339 32.9508 185.256 32.7409 185.09 32.5879C184.927 32.4316 184.706 32.3519 184.426 32.3486H183.244ZM190.773 29.7168H191.955V35H190.773V31.4746L188.703 35H187.521V29.7168H188.703V33.2422L190.773 29.7168Z" fill="black"/>
<defs>
<filter id="filter0_d" x="0" y="0" width="226" height="84" filterUnits="userSpaceOnUse" color-interpolation-filters="sRGB">
<feFlood flood-opacity="0" result="BackgroundImageFix"/>
<feColorMatrix in="SourceAlpha" type="matrix" values="0 0 0 0 0 0 0 0 0 0 0 0 0 0 0 0 0 0 127 0"/>
<feOffset dy="10"/>
<feGaussianBlur stdDeviation="11"/>
<feColorMatrix type="matrix" values="0 0 0 0 0.231373 0 0 0 0 0.290196 0 0 0 0 0.454902 0 0 0 0.1 0"/>
<feBlend mode="normal" in2="BackgroundImageFix" result="effect1_dropShadow"/>
<feBlend mode="normal" in="SourceGraphic" in2="effect1_dropShadow" result="shape"/>
</filter>
</defs>
</svg>
